<svg width="20" height="20" viewBox="0 0 20 20" fill="none" xmlns="http://www.w3.org/2000/svg">
<mask id="mask0_19_61" style="mask-type:luminance" maskUnits="userSpaceOnUse" x="0" y="0" width="21" height="20">
<path fill-rule="evenodd" clip-rule="evenodd" d="M0.00146484 0.000488281H20.0015V19.879H0.00146484V0.000488281Z" fill="white"/>
</mask>
<g mask="url(#mask0_19_61)">
<path fill-rule="evenodd" clip-rule="evenodd" d="M20.0012 9.99997C20.0012 4.4769 15.5238 -0.000427246 10.0006 -0.000427246C4.47741 -0.000427246 0 4.4769 0 9.99997C0 14.9915 3.65707 19.1286 8.43799 19.8789V12.8907H5.89878V9.99997H8.43799V7.79675C8.43799 5.29041 9.93101 3.90598 12.2154 3.90598C13.3095 3.90598 14.454 4.1013 14.454 4.1013V6.56233H13.1929C11.9506 6.56233 11.5632 7.3332 11.5632 8.12405V9.99997H14.3368L13.8934 12.8907H11.5632V19.8789C16.3441 19.1286 20.0012 14.9915 20.0012 9.99997Z" fill="#1877F2"/>
</g>
<path fill-rule="evenodd" clip-rule="evenodd" d="M13.8935 12.8909L14.3369 10.0001H11.5633V8.1242C11.5633 7.33335 11.9507 6.56248 13.1931 6.56248H14.4541V4.10145C14.4541 4.10145 13.3097 3.90613 12.2155 3.90613C9.93115 3.90613 8.43814 5.29056 8.43814 7.79691V10.0001H5.89893V12.8909H8.43814V19.879C8.94729 19.9589 9.46914 20.0005 10.0007 20.0005C10.5323 20.0005 11.0542 19.9589 11.5633 19.879V12.8909H13.8935Z" fill="white"/>
</svg>
