<svg width="20" height="20" viewBox="0 0 20 20" fill="none" xmlns="http://www.w3.org/2000/svg">
<path d="M4.6875 9.99996C4.6875 9.00907 4.96051 8.08082 5.4348 7.28602V3.91461H2.0634C0.725312 5.65242 0 7.77035 0 9.99996C0 12.2296 0.725312 14.3475 2.0634 16.0853H5.4348V12.7139C4.96051 11.9191 4.6875 10.9909 4.6875 9.99996Z" fill="#FBBD00"/>
<path d="M10 15.3125L7.65625 17.6562L10 20C12.2296 20 14.3475 19.2747 16.0854 17.9366V14.5688H12.7175C11.9158 15.0448 10.9836 15.3125 10 15.3125Z" fill="#0F9D58"/>
<path d="M5.43488 12.7139L2.06348 16.0853C2.3284 16.4294 2.61687 16.7589 2.92902 17.0711C4.81777 18.9598 7.32898 20 10.0001 20V15.3125C8.06164 15.3125 6.3627 14.2687 5.43488 12.7139Z" fill="#31AA52"/>
<path d="M20 9.99998C20 9.39158 19.9449 8.78205 19.8363 8.18838L19.7483 7.70795H10V12.3954H14.7442C14.2835 13.3119 13.5752 14.0596 12.7175 14.5688L16.0853 17.9366C16.4294 17.6717 16.7589 17.3832 17.0711 17.0711C18.9598 15.1823 20 12.6711 20 9.99998Z" fill="#3C79E6"/>
<path d="M13.7565 6.24348L14.1708 6.65777L17.4854 3.34324L17.0711 2.92895C15.1823 1.0402 12.6711 0 10 0L7.65625 2.34375L10 4.6875C11.419 4.6875 12.7531 5.24008 13.7565 6.24348Z" fill="#CF2D48"/>
<path d="M9.99999 4.6875V0C7.3289 0 4.81769 1.0402 2.9289 2.92891C2.61675 3.24105 2.32828 3.57055 2.06335 3.91465L5.43476 7.28605C6.36261 5.73125 8.06156 4.6875 9.99999 4.6875Z" fill="#EB4132"/>
</svg>
