<svg width="18" height="18" viewBox="0 0 18 18" fill="none" xmlns="http://www.w3.org/2000/svg">
<g clip-path="url(#clip0_1_146)">
<path d="M14.4225 11.445L12.5175 11.2275C12.06 11.175 11.61 11.3325 11.2875 11.655L9.90753 13.035C7.78503 11.955 6.04503 10.2225 4.96503 8.09251L6.35253 6.70501C6.67503 6.38251 6.83253 5.93251 6.78003 5.47501L6.56253 3.58501C6.47253 2.82751 5.83503 2.25751 5.07003 2.25751H3.77253C2.92503 2.25751 2.22003 2.96251 2.27253 3.81001C2.67003 10.215 7.79253 15.33 14.19 15.7275C15.0375 15.78 15.7425 15.075 15.7425 14.2275V12.93C15.75 12.1725 15.18 11.535 14.4225 11.445Z" fill="#323232"/>
</g>
<defs>
<clipPath id="clip0_1_146">
<rect width="18" height="18" fill="white"/>
</clipPath>
</defs>
</svg>
